# xmcd
#
# Track frame offsets:
#	150
#	11108
#	20140
#	31930
#	51865
#	62910
#	75855
#	87700
#	100755
#	113398
#	130573
#	141428
#	154378
#	164330
#	178360
#
# Disc length: 2549 seconds
#
# Revision: 0
# Processed by: cddbd v1.5.2PL0 Copyright (c) Steve Scherf et al.
# Submitted via: EasyCDDAExtractor 16.0.8.2
#
DISCID=c609f30f
DTITLE=Συλλογικός δίσκος - Μίκης Θεοδωράκης 2 Τραγ. αγώνα-Αρκαδία IV
DYEAR=2004
DGENRE=Ποικίλη
TTITLE0=Θεοδωράκης Μίκης - Στην Ελλάδα σήμερα [Αλέκου Παναγούλη, 1971 Λονδίνο]
TTITLE1=Θεοδωράκης Μίκης-Φαραντούρη Μαρία - Στον Νικηφόρο Μανδηλαρά [Αλέκου Πα
TTITLE1=ναγούλη, 1971 Λονδίνο]
TTITLE2=Θεοδωράκης Μίκης-Φαραντούρη Μαρία - Πάλης ξεκίνημα (Οι πρώτοι νεκροί) 
TTITLE2=[Αλέκου Παναγούλη, 1971 Λονδίνο]
TTITLE3=Φαραντούρη Μαρία-Θεοδωράκης Μίκης - Όταν χτυπήσεις δυό φορές (Αλέξανδρ
TTITLE3=έ μου)[Μ. Θεοδ., 1969 Ζάτουνα]
TTITLE4=Φαραντούρη Μαρία - Ο θρήνος [Γεωργία Δεληγιάννη-Αναστασιάδη, 1968 Βραχ
TTITLE4=άτι]
TTITLE5=Θεοδωράκης Μίκης-Δημητριάδη Μαρία - Μην ξεχνάς τον Ωρωπό [Μ. Θεοδωράκη
TTITLE5=, 1970 Ωρωπός]
TTITLE6=Θεοδωράκης Μίκης - Διότι δεν συνεμορφώθην [Μ. Θεοδωράκη, 1970 Ωρωπός]
TTITLE7=Δημητριάδη Μαρία - Ο λεβέντης [Νότη Περγιάλη, 1968 Βραχάτι]
TTITLE8=Θεοδωράκης Μίκης-Φαραντούρη Μαρία - Η επιστολή [Μάνου Ελευθερίου, 1971
TTITLE8=Λονδίνο]
TTITLE9=Θεοδωράκης Μίκης-Φαραντούρη Μαρία - Η αυλή [Μάνου Ελευθερίου, 1971 Λον
TTITLE9=δίνο]
TTITLE10=Φαραντούρη Μαρία-Καραλής Λάκης - Ποιος τη ζωή μου [Μάνου Ελευθερίου, 
TTITLE10=1971 Λονδίνο]
TTITLE11=Θεοδωράκης Μίκης-Φαραντούρη Μαρία - Κλείσ' το παράθυρο [Μάνου Ελευθερ
TTITLE11=ίου, 1971 Λονδίνο]
TTITLE12=Φαραντούρη Μαρία-Θεοδωράκης Μίκης - Τα ηφαίστια [Αρκαδία IV]
TTITLE13=Φαραντούρη Μαρία-Θεοδωράκης Μίκης - Εις Σάμον [Αρκαδία IV]
TTITLE14=Φαραντούρη Μαρία-Θεοδωράκης Μίκης - Αι ευχαί [Αρκαδία IV]
EXTD=
EXTT0=
EXTT1=
EXTT2=
EXTT3=
EXTT4=
EXTT5=
EXTT6=
EXTT7=
EXTT8=
EXTT9=
EXTT10=
EXTT11=
EXTT12=
EXTT13=
EXTT14=
PLAYORDER=
